#!OML:ASF H:\ManfredETheater\Project 1\Capture day 1\Session 1\subject.ASF
:FULLY-SPECIFIED
:DEGREES
200
root -7.22361 17.1002 -31.966 -154.37 -25.6152 -186.903
lowerback 14.844 -3.05469 -2.92466
upperback -0.545219 -4.42704 2.414
thorax -8.50314 -1.97526 5.2162
lowerneck -16.9372 0.985184 -4.75164
upperneck 1.68229 2.09249 -2.55663
head 3.54204 0.700864 0.158655
rclavicle -3.97569e-014 1.98785e-014
rhumerus -73.742 0.941224 -73.2299
rradius 78.7648
rwrist -13.6469
rhand -27.9482 5.72166
rfingers 7.12502
rthumb -1.33591 -24.2539
lclavicle -3.97569e-014 1.98785e-014
lhumerus -16.6194 -36.0016 79.3552
lradius 117.567
lwrist 10.1032
lhand -20.7167 -14.786
lfingers 7.12502
lthumb 5.64792 15.1187
rfemur -62.6381 -7.71075 20.5671
rtibia 57.2603
rfoot -14.6321 -3.96968
rtoes -31.0203
lfemur -3.68695 -8.48167 -27.0545
ltibia 40.469
lfoot 31.731 -10.3049
ltoes 9.45277
201
root -7.41128 17.1105 -32.328 -154.108 -25.5234 -186.869
lowerback 14.906 -3.02291 -2.63172
upperback -0.521589 -4.32289 2.63017
thorax -8.52789 -1.93514 5.26735
lowerneck -16.978 1.12551 -4.60172
upperneck 1.43242 2.24534 -3.07522
head 3.46631 0.745098 -0.0310938
rclavicle 1.43125e-014 6.36111e-015
rhumerus -71.568 -0.39155 -73.5483
rradius 77.7248
rwrist -13.7925
rhand -27.7137 5.19961
rfingers 7.12502
rthumb -1.10936 -24.7773
lclavicle 1.43125e-014 6.36111e-015
lhumerus -19.8207 -35.9569 82.8445
lradius 113.54
lwrist 10.6169
lhand -21.0038 -14.7135
lfingers 7.12502
lthumb 5.37065 15.1984
rfemur -60.8803 -7.57582 20.4701
rtibia 56.9736
rfoot -16.003 -4.40594
rtoes -29.746
lfemur -5.42308 -8.08062 -26.8815
ltibia 43.6944
lfoot 30.6032 -9.51699
ltoes 11.101
202
root -7.59944 17.1164 -32.6868 -153.948 -25.4133 -186.646
lowerback 15.0376 -2.97719 -2.20465
upperback -0.506311 -4.17721 2.87063
thorax -8.61298 -1.87905 5.26656
lowerneck -17.0086 1.27287 -4.43759
upperneck 1.12283 2.39467 -3.58934
head 3.36939 0.788417 -0.221862
rclavicle 2.22639e-014 7.95139e-016
rhumerus -69.2015 -1.60992 -73.9599
rradius 76.6389
rwrist -14.2251
rhand -27.5537 4.64634
rfingers 7.12502
rthumb -0.954837 -25.3313
lclavicle 2.22639e-014 7.95139e-016
lhumerus -22.6633 -35.2721 86.1794
lradius 109.184
lwrist 11.062
lhand -21.4531 -14.8013
lfingers 7.12502
lthumb 4.93685 15.1211
rfemur -59.1589 -7.30383 20.5049
rtibia 56.6618
rfoot -17.4479 -5.10341
rtoes -28.6483
lfemur -7.34623 -7.66296 -26.5481
ltibia 47.1398
lfoot 29.2095 -8.90299
ltoes 12.1961
203
root -7.78828 17.1185 -33.0416 -153.922 -25.2579 -186.188
lowerback 15.2457 -2.9031 -1.61742
upperback -0.48559 -3.96593 3.1343
thorax -8.75034 -1.79822 5.19192
lowerneck -17.0242 1.4231 -4.26401
upperneck 0.735782 2.53232 -4.08072
head 3.24396 0.82817 -0.407292
rclavicle -4.17448e-014 -9.54166e-015
rhumerus -66.6422 -2.71524 -74.4751
rradius 75.5302
rwrist -15.0096
rhand -27.5009 4.05943
rfingers 7.12502
rthumb -0.903871 -25.9184
lclavicle -4.17448e-014 -9.54166e-015
lhumerus -25.0428 -33.9808 89.1938
lradius 104.544
lwrist 11.3814
lhand -21.9813 -15.0722
lfingers 7.12502
lthumb 4.42681 14.8616
rfemur -57.5043 -6.86816 20.7073
rtibia 56.3815
rfoot -18.7672 -6.00245
rtoes -27.8009
lfemur -9.42968 -7.18661 -26.0231
ltibia 50.7529
lfoot 27.6401 -8.64746
ltoes 12.5898
204
root -7.97789 17.1167 -33.3927 -154.047 -25.015 -185.479
lowerback 15.534 -2.78301 -0.879428
upperback -0.450586 -3.66659 3.41222
thorax -8.93189 -1.68328 5.03255
lowerneck -16.9954 1.57104 -4.06969
upperneck 0.24492 2.64465 -4.54816
head 3.07536 0.858883 -0.590073
rclavicle 4.13472e-014 2.06736e-014
rhumerus -63.9068 -3.69325 -75.1058
rradius 74.4252
rwrist -16.1127
rhand -27.5897 3.48978
rfingers 7.12502
rthumb -0.989615 -26.4877
lclavicle 4.13472e-014 2.06736e-014
lhumerus -26.9351 -32.1563 91.7844
lradius 99.6794
lwrist 11.5352
lhand -22.4915 -15.4687
lfingers 7.12502
lthumb 3.93416 14.4747
rfemur -55.9248 -6.24207 21.0723
rtibia 56.1839
rfoot -19.8534 -6.96014
rtoes -27.3336
lfemur -11.648 -6.58924 -25.3049
ltibia 54.4881
lfoot 25.9821 -8.81136
ltoes 12.4762
205
root -8.16761 17.1106 -33.7408 -154.331 -24.66 -184.536
lowerback 15.9103 -2.60643 -0.015892
upperback -0.392137 -3.26883 3.68898
thorax -9.14816 -1.53016 4.78134
lowerneck -16.9023 1.71083 -3.85365
upperneck -0.359204 2.7212 -4.98413
head 2.8569 0.876498 -0.768432
rclavicle 2.26615e-014 2.3059e-014
rhumerus -61.0194 -4.53939 -75.8612
rradius 73.3549
rwrist -17.3577
rhand -27.8543 3.00812
rfingers 7.12502
rthumb -1.24521 -26.968
lclavicle 2.26615e-014 2.3059e-014
lhumerus -28.3893 -29.9424 93.9155
lradius 94.669
lwrist 11.6867
lhand -23.0801 -15.9434
lfingers 7.12502
lthumb 3.36573 14.0098
rfemur -54.356 -5.43239 21.5797
rtibia 56.0069
rfoot -20.5525 -7.81659
rtoes -27.24
lfemur -13.9252 -5.83732 -24.4096
ltibia 58.2136
lfoot 24.2767 -9.34406
ltoes 12.1381
206
root -8.3567 17.0991 -34.0867 -154.767 -24.1703 -183.408
lowerback 16.3847 -2.37093 0.919602
upperback -0.3095 -2.77694 3.94872
thorax -9.39613 -1.33989 4.44982
lowerneck -16.7352 1.84416 -3.60677
upperneck -1.06205 2.76416 -5.39167
head 2.59292 0.88218 -0.944443
rclavicle 2.5842e-014 -3.97569e-015
rhumerus -58.0208 -5.22872 -76.7386
rradius 72.3638
rwrist -18.43
rhand -28.1947 2.57399
rfingers 7.12502
rthumb -1.57395 -27.3999
lclavicle 2.5842e-014 -3.97569e-015
lhumerus -29.5068 -27.444 95.5791
lradius 89.6237
lwrist 11.8706
lhand -23.7532 -16.4166
lfingers 7.12502
lthumb 2.71569 13.5459
rfemur -52.7853 -4.46545 22.1906
rtibia 55.9414
rfoot -21.0556 -8.51946
rtoes -27.2169
lfemur -16.2521 -4.90707 -23.3746
ltibia 61.9847
lfoot 22.3787 -10.1268
ltoes 11.5994
207
root -8.54896 17.1186 -34.4448 -155.32 -23.5707 -182.156
lowerback 16.9301 -2.09253 1.89616
upperback -0.206574 -2.2157 4.18276
thorax -9.65637 -1.12414 4.04689
lowerneck -16.5086 1.96831 -3.33076
upperneck -1.8296 2.77541 -5.77356
head 2.29894 0.875798 -1.11824
rclavicle 6.52014e-014 3.49861e-014
rhumerus -54.9655 -5.70526 -77.7452
rradius 71.5262
rwrist -19.0654
rhand -28.5173 2.13542
rfingers 7.12502
rthumb -1.88551 -27.836
lclavicle 6.52014e-014 3.49861e-014
lhumerus -30.4135 -24.7676 96.7893
lradius 84.6671
lwrist 12.098
lhand -24.4718 -16.9035
lfingers 7.12502
lthumb 2.0217 13.0667
rfemur -50.9815 -3.41938 22.8677
rtibia 55.8224
rfoot -21.6282 -9.03085
rtoes -27.5411
lfemur -18.5092 -3.81747 -22.2217
ltibia 65.6006
lfoot 20.2901 -10.9892
ltoes 10.8125
208
root -8.73528 17.0954 -34.7917 -155.93 -22.8759 -180.897
lowerback 17.5363 -1.78881 2.82218
upperback -0.094648 -1.62331 4.37162
thorax -9.92687 -0.896439 3.60998
lowerneck -16.2631 2.08998 -3.02425
upperneck -2.6023 2.77355 -6.13073
head 2.00367 0.86476 -1.28899
rclavicle 3.02153e-014 -7.95139e-015
rhumerus -51.9212 -5.89915 -78.8997
rradius 70.9304
rwrist -19.1427
rhand -28.7424 1.71919
rfingers 7.12502
rthumb -2.10293 -28.2502
lclavicle 3.02153e-014 -7.95139e-015
lhumerus -31.2541 -22.0292 97.5703
lradius 79.9767
lwrist 12.3712
lhand -25.1323 -17.2787
lfingers 7.12502
lthumb 1.38376 12.6965
rfemur -49.2862 -2.35198 23.5348
rtibia 55.8618
rfoot -22.3164 -9.32426
rtoes -28.3617
lfemur -20.8733 -2.60907 -21.0568
ltibia 69.3143
lfoot 17.8921 -11.821
ltoes 9.69497
209
root -8.91818 17.0659 -35.1408 -156.523 -22.1124 -179.741
lowerback 18.1521 -1.47383 3.59986
upperback 0.0143209 -1.03773 4.50885
thorax -10.1876 -0.668659 3.19368
lowerneck -16.0421 2.21422 -2.70131
upperneck -3.3231 2.77749 -6.4597
head 1.73396 0.856765 -1.45222
rclavicle 5.56597e-015 -1.82882e-014
rhumerus -48.9621 -5.73784 -80.2034
rradius 70.6974
rwrist -18.6862
rhand -28.8131 1.36127
rfingers 7.12502
rthumb -2.17124 -28.6074
lclavicle 5.56597e-015 -1.82882e-014
lhumerus -32.182 -19.3713 97.9756
lradius 75.7612
lwrist 12.6826
lhand -25.684 -17.5182
lfingers 7.12502
lthumb 0.850913 12.4599
rfemur -47.5185 -1.334 24.1141
rtibia 55.8722
rfoot -23.1692 -9.52575
rtoes -29.6031
lfemur -23.2906 -1.32585 -19.9519
ltibia 72.9401
lfoot 15.292 -12.5007
ltoes 8.10681
210
root -9.09825 17.0305 -35.4931 -157.021 -21.3361 -178.774
lowerback 18.7182 -1.17303 4.19132
upperback 0.0936126 -0.501764 4.58719
thorax -10.437 -0.456599 2.82173
lowerneck -15.8783 2.34356 -2.36727
upperneck -3.93744 2.80097 -6.75974
head 1.51323 0.857463 -1.60659
rclavicle -9.54166e-015 3.65764e-014
rhumerus -46.188 -5.18061 -81.6407
rradius 70.9608
rwrist -17.8458
rhand -28.6627 1.13167
rfingers 7.12502
rthumb -2.02593 -28.8385
lclavicle -9.54166e-015 3.65764e-014
lhumerus -33.3595 -16.9587 98.0777
lradius 72.2284
lwrist 13.0082
lhand -26.0677 -17.6869
lfingers 7.12502
lthumb 0.480372 12.2923
rfemur -45.7397 -0.46665 24.5588
rtibia 55.899
rfoot -24.2275 -9.72216
rtoes -30.9915
lfemur -25.8297 -0.0432188 -18.9806
ltibia 76.498
lfoot 12.55 -12.9209
ltoes 6.17192
211
root -9.27578 16.9897 -35.8493 -157.391 -20.5961 -178.033
lowerback 19.1846 -0.900755 4.57536
upperback 0.137934 -0.043412 4.61743
thorax -10.6579 -0.270096 2.52607
lowerneck -15.8083 2.47873 -2.0401
upperneck -4.4135 2.85332 -7.02464
head 1.35692 0.870411 -1.74696
rclavicle -3.18055e-014 -4.77083e-014
rhumerus -43.6755 -4.19395 -83.1724
rradius 71.8419
rwrist -16.805
rhand -28.2497 1.08868
rfingers 7.12502
rthumb -1.62705 -28.8849
lclavicle -3.18055e-014 -4.77083e-014
lhumerus -34.9013 -14.9468 97.9668
lradius 69.5734
lwrist 13.277
lhand -26.2111 -17.7421
lfingers 7.12502
lthumb 0.341898 12.2373
rfemur -43.9236 0.203499 24.8492
rtibia 55.8102
rfoot -25.3808 -9.92135
rtoes -32.2184
lfemur -28.5147 1.18852 -18.1803
ltibia 79.8898
lfoot 9.84676 -13.0577
ltoes 4.2685
